Coordinates
version=1
nRows=12
nColumns=24
inDegrees=yes

Units are S.I. units (second, meters, Newtons, ...)
Angles are in degrees.

endheader
time	pelvis_tilt	pelvis_list	pelvis_rotation	pelvis_tx	pelvis_ty	pelvis_tz	hip_flexion_r	hip_adduction_r	hip_rotation_r	knee_angle_r	ankle_angle_r	subtalar_angle_r	mtp_angle_r	hip_flexion_l	hip_adduction_l	hip_rotation_l	knee_angle_l	ankle_angle_l	subtalar_angle_l	mtp_angle_l	lumbar_extension	lumbar_bending	lumbar_rotation
      4.14000000	     92.51537419	     34.72579576	    -90.72552392	      1.02861161	      0.28022799	      1.07696538	     14.35072740	     -7.54886455	      4.76222505	    -64.53219558	     -8.43743405	      0.00000000	      0.00000000	     12.16224269	     -6.90943346	     -4.28209682	    -71.80471189	    -11.45228070	      0.00000000	      0.00000000	      0.00000000	      0.00000000	      0.00000000
      4.15000000	     92.51497272	     34.73155577	    -90.72212109	      1.02863752	      0.28025691	      1.07699563	     14.35212498	     -7.54443308	      4.75298322	    -64.49719302	     -8.40773615	      0.00000000	      0.00000000	     12.16621260	     -6.90670629	     -4.27962371	    -71.80064779	    -11.45589671	      0.00000000	      0.00000000	      0.00000000	      0.00000000	      0.00000000
      4.16000000	     92.51485808	     34.73126806	    -90.71718477	      1.02865376	      0.28025222	      1.07701418	     14.35082359	     -7.53646386	      4.75288959	    -64.46635872	     -8.42003541	      0.00000000	      0.00000000	     12.16559854	     -6.90509159	     -4.27672024	    -71.79582744	    -11.45943502	      0.00000000	      0.00000000	      0.00000000	      0.00000000	      0.00000000
      4.17000000	     92.51565064	     34.72618044	    -90.71171549	      1.02864820	      0.28021235	      1.07701424	     14.34803785	     -7.52667642	      4.75697195	    -64.43977571	     -8.46362382	      0.00000000	      0.00000000	     12.16190093	     -6.90506867	     -4.27433018	    -71.78997711	    -11.46282106	      0.00000000	      0.00000000	      0.00000000	      0.00000000	      0.00000000
      4.18000000	     92.51658729	     34.71869000	    -90.70704525	      1.02862527	      0.28016237	      1.07700404	     14.34414700	     -7.51766526	      4.76140245	    -64.41605189	     -8.51628516	      0.00000000	      0.00000000	     12.15658739	     -6.90613507	     -4.27371890	    -71.78311318	    -11.46601253	      0.00000000	      0.00000000	      0.00000000	      0.00000000	      0.00000000
      4.19000000	     92.51633612	     34.71107519	    -90.70438916	      1.02860557	      0.28013223	      1.07699559	     14.33932626	     -7.51225948	      4.76400713	    -64.39326081	     -8.55407490	      0.00000000	      0.00000000	     12.15054948	     -6.90707609	     -4.27592163	    -71.77552884	    -11.46891070	      0.00000000	      0.00000000	      0.00000000	      0.00000000	      0.00000000
      4.20000000	     92.51457174	     34.70473835	    -90.70437216	      1.02860453	      0.28013206	      1.07699525	     14.33386856	     -7.51234909	      4.76388166	    -64.37030140	     -8.56073481	      0.00000000	      0.00000000	     12.14421934	     -6.90678650	     -4.28127548	    -71.76752462	    -11.47133329	      0.00000000	      0.00000000	      0.00000000	      0.00000000	      0.00000000
      4.21000000	     92.51253671	     34.70001646	    -90.70695608	      1.02861445	      0.28014430	      1.07700226	     14.32818744	     -7.51807710	      4.76083801	    -64.34785717	     -8.53317956	      0.00000000	      0.00000000	     12.13800615	     -6.90473018	     -4.28938665	    -71.75924359	    -11.47311326	      0.00000000	      0.00000000	      0.00000000	      0.00000000	      0.00000000
      4.22000000	     92.51183968	     34.69641481	    -90.71172843	      1.02861897	      0.28014828	      1.07701351	     14.32276960	     -7.52828289	      4.75552393	    -64.32819145	     -8.48139294	      0.00000000	      0.00000000	     12.13246791	     -6.90087523	     -4.29935502	    -71.75075178	    -11.47426074	      0.00000000	      0.00000000	      0.00000000	      0.00000000	      0.00000000
      4.23000000	     92.51298890	     34.69318737	    -90.71809598	      1.02861252	      0.28014521	      1.07702290	     14.31820685	     -7.54143949	      4.74978880	    -64.31389184	     -8.42340957	      0.00000000	      0.00000000	     12.12798928	     -6.89544993	     -4.30998084	    -71.74223054	    -11.47502474	      0.00000000	      0.00000000	      0.00000000	      0.00000000	      0.00000000
      4.24000000	     92.51519170	     34.68976419	    -90.72515065	      1.02860149	      0.28014831	      1.07702447	     14.31526143	     -7.55604211	      4.74646663	    -64.30639047	     -8.37783657	      0.00000000	      0.00000000	     12.12448067	     -6.88878140	     -4.31997639	    -71.73405836	    -11.47576914	      0.00000000	      0.00000000	      0.00000000	      0.00000000	      0.00000000
      4.25000000	     92.51729059	     34.68599340	    -90.73165559	      1.02859452	      0.28015985	      1.07701976	     14.31446826	     -7.57047812	      4.74841442	    -64.30526534	     -8.35698520	      0.00000000	      0.00000000	     12.12160712	     -6.88127533	     -4.32825371	    -71.72667685	    -11.47674878	      0.00000000	      0.00000000	      0.00000000	      0.00000000	      0.00000000
